<svg xmlns="http://www.w3.org/2000/svg" viewBox="0 0 487.645 467.423">
  <path d="M92.814 467.423c-10.095-5.394-45.996-.051-51.502-63.696S-.901 344.397.016 305.563s25.695-73.354 47.719-88.456c22.024-15.102-48.284-97.105 7.518-135.39 55.802-38.285 65.829-5.384 97.522-22.374 31.693-16.99 47.294-63.375 104.19-59.06 56.896 4.315 46.937 67.91 46.937 67.91s37.246-77.66 106.315-11.817c109.403 104.293 35.856 220.206 35.856 220.206l-55.128-7.696s91.768-39.913 96.356 45.307c4.588 85.22-37.625 145.628-95.439 148.865-57.81 3.235-299.048 4.365-299.048 4.365z" fill="#e9f2fd"/>
  <path d="M143.06 352.776l-6.065-.177s-8.285-45.373-14.982-58.537c0 0-65.978 7.408-82.304-39.756 0 0 48.712-22.438 81.505 32.47 0 0-8.33-43.818-24.838-84.763 0 0-48.485 14.663-60.904-27.718 0 0 28.344-17.846 54.449 6.261 0 0-11.175-33.008-21.32-49.385 0 0-36.724 10.339-52.372-25.393 0 0 27.015-6.991 46.732 10.704L45.246 82.244S11.943 62.077 16.052 25.366c0 0 36.103 10.912 32.868 52.317l17.625 37.346s1.091-37.318 27.494-40.696c0 0 6.278 44.795-20.322 54.911 0 0 17.21 34.222 24.049 59.84 0 0-7.213-47.417 31.578-59.251 0 0 16.154 35.747-26.736 66.655 0 0 13.551 38.264 23.246 87.31 0 0-14.84-46.083 28.05-76.991 0 0 30.26 37.716-23.314 88.023 0 .001 8.831 26.715 12.47 57.946z" fill="#7dbf8c"/>
  <path d="M233.421 190.294l-2.572-.695s1.093-20.224-.424-26.531c0 0-28.935-3.57-31.094-25.381 0 0 23.095-4.611 31.497 22.187 0 0 .915-19.565-1.957-38.737 0 0-22.205 1.314-23.183-18.055 0 0 13.927-4.729 22.616 8.232 0 0-1.404-15.238-4.065-23.269 0 0-16.74.667-19.776-16.191 0 0 12.252-.229 18.867 9.341l-4.072-16.431s-12.165-12.013-6.663-27.272c0 0 14.306 8.345 8.698 25.699l3.716 17.749s4.275-15.827 15.897-14.575c0 0-1.891 19.773-14.284 21.378 0 0 3.857 16.373 4.163 28.012 0 0 1.759-20.988 19.535-22.083 0 0 3.251 16.916-18.222 25.739 0 0 1.882 17.726 1.017 39.663 0 0-1.634-21.197 19.839-30.02 0 0 9.075 19.197-18.942 35.215-.002.004 1.043 12.315-.591 26.025zM336.595 314.633l-3.205-3.886s23.82-29.98 28.384-41.361c0 0-40.696-37.173-20.152-73.157 0 0 40.648 18.17 24.268 68.675 0 0 22.824-29.158 39.382-61.855 0 0-35.667-22.278-15.975-53.205 0 0 26.645 7.954 25.853 37.443 0 0 14.514-25.026 19.202-40.317 0 0-26.535-17.294-12.764-46.604 0 0 19.136 13.057 18.859 35.049l11.706-29.784s-5.605-31.832 19.578-49.333c0 0 12.918 28.522-14.72 49.136l-13.699 31.427s23.913-19.718 40.457-5.068c0 0-24.556 28.41-45.418 17.32 0 0-11.974 29.461-24.241 47.738 0 0 25.683-30.428 54.283-12.66 0 0-13.504 29.634-56.262 19.733 0 0-16.5 29.384-41.844 62.253 0 0 20.681-34.464 63.438-24.563 0 0-7.023 39.524-67.742 33.552-.001-.001-11.865 20.12-29.388 39.467z" fill="#9fdaaf"/>
  <path d="M265.042 286.349l-3.677-3.567s20.699-32.989 24.03-45.008c0 0-45.327-32.989-28.617-71.677 0 0 43.136 13.785 32.271 66.683 0 0 19.784-32.046 32.836-66.964 0 0-38.564-18.499-22.145-51.98 0 0 27.829 5.036 30.354 34.934 0 0 11.85-26.933 14.865-42.918 0 0-28.772-14.49-18.155-45.67 0 0 20.815 11.041 23.013 33.303l8.476-31.426s-9.253-31.545 14.229-52.074c0 0 16.273 27.375-9.341 51.327l-10.305 33.312s21.949-22.627 40.323-9.683c0 0-21.62 31.486-43.957 22.627 0 0-8.783 31.129-19.123 50.987 0 0 22.531-33.652 53.443-18.916 0 0-10.31 31.477-54.646 26.288 0 0-13.366 31.562-35.28 67.643 0 0 17.02-37.168 61.356-31.979 0 0-2.644 40.744-64.693 41.551 0 0-9.724 21.676-25.257 43.207z" fill="#7dbf8c"/>
  <path d="M231.452 380.824l-1.746-2.862s18.511-17.51 22.588-24.578c0 0-23.314-28.315-6.396-50.088 0 0 25.069 15.792 9.529 47.523 0 0 17.778-17.062 31.76-37.045 0 0-21.401-18.03-5.521-36.552 0 0 16.805 7.745 13.51 27.097 0 0 11.915-15.122 16.441-24.754 0 0-15.854-13.888-4.026-31.901 0 0 11.378 10.401 9.128 24.863l10.513-18.52s-.699-21.497 17.537-30.658c0 0 5.828 20.004-14.317 30.985l-11.98 19.415s17.607-10.741 27.128.466c0 0-18.849 16.407-31.549 7.139 0 0-10.658 18.282-20.459 29.169 0 0 19.78-17.63 36.95-3.236 0 0-11.683 18.252-38.919 7.709 0 0-13.633 17.806-33.419 37.075 0 0 16.865-20.759 44.101-10.215 0 0-8.343 25.377-47.781 15.733-.001-.001-9.709 12.138-23.072 23.235z" fill="#9fdaaf"/>
  <path d="M305.233 422.317v-44.412h-87.104v44.412c-8.212 5.27-17.955 8.363-28.437 8.363 0 1.981 1.606 3.587 3.587 3.587h136.804c1.981 0 3.586-1.606 3.586-3.587-10.481 0-20.224-3.093-28.436-8.363z" fill="#0f3872"/>
  <path fill="#00022f" d="M217.726 367.659h87.847v24.707h-87.847z"/>
  <path d="M448.699 355.93V158.847c0-11.885-9.635-21.52-21.52-21.52H96.183c-11.885 0-21.52 9.635-21.52 21.52V355.93h374.036z" fill="#269aff"/>
  <path d="M448.699 355.93v2.744c0 11.885-9.635 21.52-21.52 21.52H96.183c-11.885 0-21.52-9.635-21.52-21.52v-2.744h374.036z" fill="#003ba4"/>
  <path fill="#b9ddff" d="M93.878 156.541h335.607v180.175H93.878z"/>
  <ellipse transform="rotate(-22.5 138.3115 198.093)" cx="138.318" cy="198.101" rx="28.524" ry="28.524" fill="#aad0f9"/>
  <path d="M282.885 192.915h-81.683c-3.209 0-5.835-2.626-5.835-5.835s2.626-5.835 5.835-5.835h81.683c3.209 0 5.835 2.626 5.835 5.835-.001 3.209-2.626 5.835-5.835 5.835zM282.885 217.549h-81.683c-3.209 0-5.835-2.626-5.835-5.835s2.626-5.835 5.835-5.835h81.683c3.209 0 5.835 2.626 5.835 5.835-.001 3.21-2.626 5.835-5.835 5.835zM282.885 242.184h-81.683c-3.209 0-5.835-2.626-5.835-5.835s2.626-5.835 5.835-5.835h81.683c3.209 0 5.835 2.626 5.835 5.835-.001 3.21-2.626 5.835-5.835 5.835zM272.512 272.005h-154.29c-3.209 0-5.834-2.626-5.834-5.835s2.625-5.835 5.834-5.835h154.291c3.209 0 5.834 2.625 5.834 5.835 0 3.209-2.626 5.835-5.835 5.835zM272.512 296.64h-154.29c-3.209 0-5.834-2.626-5.834-5.835s2.625-5.835 5.834-5.835h154.291c3.209 0 5.834 2.625 5.834 5.835 0 3.209-2.626 5.835-5.835 5.835z" fill="#aad0f9"/>
  <g>
    <path d="M381.981 379.211H241.433c0 9.819 8.034 17.854 17.854 17.854h140.548c-9.82 0-17.854-8.035-17.854-17.854z" fill="#007ee3"/>
    <path d="M417.64 132.546c0-6.364 5.121-11.578 11.444-11.754H271.6c-.11-.003-.216-.017-.326-.017-.11 0-.217.014-.326.017-6.323.176-11.444 5.39-11.444 11.754v.242l-.023.024V379.21h122.5c0 9.819 8.034 17.854 17.854 17.854 9.82 0 17.854-8.035 17.854-17.854V138.19l.571-.863h-.62v-4.781zm-90.189 200.627c0-1.421 1.162-2.583 2.583-2.583h71.183c1.421 0 2.583 1.163 2.583 2.583 0 1.42-1.162 2.583-2.583 2.583h-71.183c-1.421 0-2.583-1.163-2.583-2.583zm2.583-81.516h71.183c.094 0 .183.018.275.028h.031c1.336 0 2.42 1.084 2.42 2.42 0 .584-.216 1.113-.56 1.531-.462.711-1.259 1.187-2.165 1.187h-71.183c-1.421 0-2.583-1.162-2.583-2.583s1.161-2.583 2.582-2.583zm0 9.185h71.183c1.421 0 2.583 1.163 2.583 2.583 0 1.421-1.162 2.583-2.583 2.583h-71.183c-1.421 0-2.583-1.163-2.583-2.583 0-1.421 1.162-2.583 2.583-2.583zm0 11.768h71.183c.252 0 .491.048.722.116 1.137.198 2.004 1.184 2.004 2.378 0 .706-.307 1.336-.789 1.778-.475.543-1.163.894-1.936.894h-71.183c-1.421 0-2.583-1.163-2.583-2.583-.001-1.42 1.161-2.583 2.582-2.583zm0 12.629h.85c.178-.042.361-.069.552-.069h4.531c0 .023.002.046.002.069h7.905c0-.023-.003-.046-.003-.069h57.651c1.336 0 2.42 1.083 2.42 2.42 0 .448-.13.861-.342 1.221-.39.934-1.313 1.594-2.384 1.594h-71.183c-1.421 0-2.583-1.163-2.583-2.583s1.163-2.583 2.584-2.583zm0 35.592h71.183c1.421 0 2.583 1.163 2.583 2.583 0 1.421-1.162 2.583-2.583 2.583h-42.406c.048.03.094.062.142.092h-27.516c-.218 0-.425-.038-.627-.092h-.776c-1.421 0-2.583-1.163-2.583-2.583 0-1.421 1.162-2.583 2.583-2.583zm71.488-86.805h-70.086c-1.337 0-2.421-1.084-2.421-2.42s1.083-2.42 2.421-2.42h70.086c1.336 0 2.42 1.083 2.42 2.42s-1.084 2.42-2.42 2.42zm-72.162-15.22l10.445-20.692 7.794 15.441 5.097-10.098 7.748 15.349H329.36zm9.115-94.388c.725 0 1.313.588 1.313 1.313s-.588 1.313-1.313 1.313-1.313-.588-1.313-1.313.588-1.313 1.313-1.313zm-7.789 32.11h50.645c1.337 0 2.42 1.083 2.42 2.42 0 1.336-1.084 2.42-2.42 2.42h-50.645c-1.337 0-2.421-1.084-2.421-2.42.001-1.337 1.084-2.42 2.421-2.42zm0 9.415h78.335c1.337 0 2.42 1.083 2.42 2.42s-1.084 2.42-2.42 2.42h-78.335c-1.337 0-2.421-1.083-2.421-2.42.001-1.337 1.084-2.42 2.421-2.42zm59.172 190.326h-58.735c-1.164 0-2.107-.943-2.107-2.107 0-1.163.943-2.107 2.107-2.107h58.735c1.164 0 2.107.943 2.107 2.107-.001 1.163-.944 2.107-2.107 2.107zm11.664-9.18h-70.086c-1.337 0-2.421-1.083-2.421-2.42s1.083-2.42 2.421-2.42h70.086c1.336 0 2.42 1.083 2.42 2.42 0 1.336-1.084 2.42-2.42 2.42z" fill="#fefaf6"/>
    <circle cx="338.475" cy="125.731" r="1.313" fill="#fff"/>
    <path d="M401.522 229.185h-70.086c-1.337 0-2.421 1.083-2.421 2.42s1.083 2.42 2.421 2.42h70.086c1.336 0 2.42-1.084 2.42-2.42s-1.084-2.42-2.42-2.42z" fill="#7ab0f6"/>
    <path d="M330.686 170.784h78.335c1.337 0 2.42-1.083 2.42-2.42s-1.084-2.42-2.42-2.42h-78.335c-1.337 0-2.421 1.083-2.421 2.42.001 1.336 1.084 2.42 2.421 2.42z" fill="#b9ddff"/>
    <path d="M330.686 161.368h50.645c1.337 0 2.42-1.084 2.42-2.42 0-1.337-1.084-2.42-2.42-2.42h-50.645c-1.337 0-2.421 1.083-2.421 2.42.001 1.337 1.084 2.42 2.421 2.42z" fill="#4baafc"/>
    <path fill="#fe920d" d="M339.805 198.114l-10.445 20.692h15.589l2.65-5.251z"/>
    <path fill="#7ab0f6" d="M360.444 218.806l-7.748-15.349-5.097 10.098-2.65 5.251h5.301z"/>
    <path d="M389.858 352.055h-58.735c-1.164 0-2.107.943-2.107 2.107 0 1.163.943 2.107 2.107 2.107h58.735c1.164 0 2.107-.943 2.107-2.107-.001-1.163-.944-2.107-2.107-2.107z" fill="#b9ddff"/>
    <path d="M401.522 342.248h-70.086c-1.337 0-2.421 1.083-2.421 2.42s1.083 2.42 2.421 2.42h70.086c1.336 0 2.42-1.083 2.42-2.42s-1.084-2.42-2.42-2.42z" fill="#7ab0f6"/>
    <path d="M461.132 359.622c.007-.007.017-.011.025-.019.015-.015.023-.035.038-.05-.021.023-.041.047-.063.069z" fill="#0f3872"/>
    <path d="M429.41 120.776c-.11 0-.217.014-.326.017-6.323.176-11.444 5.39-11.444 11.754v4.78h9.539c5.348 0 10.237 1.956 14.001 5.185v-9.965c0-6.474-5.296-11.771-11.77-11.771z" fill="#0062c7"/>
    <path d="M327.451 254.24c0 1.421 1.162 2.583 2.583 2.583h71.183c.906 0 1.704-.476 2.165-1.187.345-.418.56-.947.56-1.531 0-1.336-1.084-2.42-2.42-2.42h-.031c-.091-.01-.181-.028-.275-.028h-71.183c-1.42 0-2.582 1.163-2.582 2.583zM330.034 266.008h71.183c1.421 0 2.583-1.163 2.583-2.583 0-1.42-1.162-2.583-2.583-2.583h-71.183c-1.421 0-2.583 1.163-2.583 2.583 0 1.421 1.162 2.583 2.583 2.583zM330.034 277.776h71.183c.773 0 1.462-.351 1.936-.894.482-.442.789-1.072.789-1.778 0-1.194-.866-2.181-2.004-2.378-.231-.068-.47-.116-.722-.116h-71.183c-1.421 0-2.583 1.163-2.583 2.584.001 1.42 1.163 2.582 2.584 2.582zM330.034 290.406h71.183c1.07 0 1.993-.661 2.384-1.594.212-.36.342-.773.342-1.221 0-1.337-1.084-2.42-2.42-2.42h-57.651c0 .023.003.046.003.069h-7.905c0-.023-.002-.046-.002-.069h-4.531c-.191 0-.374.027-.552.069h-.85c-1.421 0-2.583 1.162-2.583 2.583s1.161 2.583 2.582 2.583zM330.034 325.997h.776c.201.054.408.092.627.092h27.516c-.048-.029-.094-.062-.142-.092h42.406c1.421 0 2.583-1.163 2.583-2.583 0-1.42-1.162-2.583-2.583-2.583h-71.183c-1.421 0-2.583 1.163-2.583 2.583 0 1.421 1.162 2.583 2.583 2.583zM403.8 333.173c0-1.421-1.162-2.583-2.583-2.583h-71.183c-1.421 0-2.583 1.163-2.583 2.583 0 1.42 1.162 2.583 2.583 2.583h71.183c1.421 0 2.583-1.163 2.583-2.583z" fill="#7ab0f6"/>
  </g>
  <g>
    <path d="M307.303 129.641l18.781 5.353-23.912 50.274-14.116-.067-24.094-27.938 16.521-6.69c.477.643 9.548 12.859 10.072 12.862.028-.783 15.912-32.144 16.748-33.794z" fill="#4baafc"/>
  </g>
  <g>
    <path d="M307.303 221.656l18.781 5.353-23.912 50.274-14.116-.067-24.094-27.938 16.521-6.69c.477.643 9.548 12.859 10.072 12.862.028-.782 15.912-32.143 16.748-33.794z" fill="#4baafc"/>
  </g>
  <g>
    <path d="M307.303 298.457l18.781 5.353-23.912 50.274-14.116-.067-24.094-27.938 16.521-6.69c.477.643 9.548 12.859 10.072 12.862.028-.783 15.912-32.144 16.748-33.794z" fill="#4baafc"/>
  </g>
  <g>
    <path d="M55.221 431.923c-3.997 13.109-5.888 19.843-5.781 20.588.057.401.404.702.807.702.038 0 .076-.003.118-.009.406-.058.707-.41.701-.818l-.001-.077.01-.076c.064-.503.26-2.03 5.758-20.008l.234-.764h39.269l-.424 1.394c-3.803 12.499-5.601 18.928-5.497 19.656.057.4.404.702.807.702.038 0 .076-.003.118-.009.406-.058.708-.41.702-.818l-.001-.077.01-.076c.326-2.546 6.961-24.326 19.722-64.736l.138-.437.411-.204c.284-.141.46-.42.46-.728 0-.126-.036-.257-.106-.386l-.221-.404.139-.439c4.023-12.731 8.559-27.011 13.481-42.441l.06-.189.123-.155c.078-.098.17-.255.181-.459l-.018-.285.06-.187c8.432-26.428 17.925-56.009 26.731-83.292a.809.809 0 0 0-.051-.623c-.099-.194-.268-.338-.48-.406a.8097.8097 0 0 0-.618.048c-.195.1-.34.27-.407.478l-.131.405c-.486 1.506-2.29 7.101-4.987 15.48l-.241.749h-39.261l.454-1.411c1.622-5.036 3.208-9.956 4.746-14.721a.8132.8132 0 0 0-.05-.623.8172.8172 0 0 0-.479-.406.8075.8075 0 0 0-.619.049c-.195.099-.339.269-.407.479-.089.274-5.183 16.059-12.369 38.444l-.118.37-.326.209c-.238.152-.379.409-.379.686 0 .099.02.201.061.302l.144.361-.119.37c-6.341 19.758-12.293 38.368-17.69 55.312-10.84 34.037-18.863 59.543-23.847 75.809l-.14.456-.431.204c-.291.137-.471.418-.471.734 0 .14.04.279.12.413l.245.41-.14.454zm83.907-135.598l-.828-.041a1.2168 1.2168 0 0 1-.085-.007H99.879l.453-1.41c2.012-6.265 3.998-12.44 5.938-18.465l.241-.749h39.261l-.454 1.41c-1.722 5.355-3.729 11.6-5.936 18.473l-.254.789zm-7.12 22.211H92.743l.451-1.409c1.982-6.19 3.961-12.363 5.919-18.465l.24-.75h39.265l-.452 1.409c-1.865 5.812-3.853 12.014-5.918 18.464l-.24.751zm-7.115 22.257H85.63l.449-1.408c1.954-6.122 3.927-12.296 5.901-18.465l.24-.751h39.265l-.451 1.409c-1.922 6.006-3.901 12.196-5.901 18.463l-.24.752zm-7.091 22.259H78.541l.447-1.406c1.924-6.05 3.889-12.224 5.88-18.466l.24-.751h39.263l-6.569 20.623zm-7.057 22.258H71.487l.444-1.405a12468.7 12468.7 0 0 1 5.852-18.465l.239-.753h39.261l-.447 1.406c-2.116 6.658-4.06 12.795-5.852 18.463l-.239.754zm-7.005 22.257H64.483l.44-1.402c1.82-5.808 3.768-11.998 5.818-18.49l.272-.86.895.115 38.322.016-.444 1.405c-2.167 6.863-4.095 12.992-5.807 18.461l-.239.755zm-46.171 22.259l.43-1.397c1.674-5.443 3.604-11.652 5.736-18.469l.237-.758h39.257l-.438 1.401c-2.219 7.101-4.146 13.32-5.728 18.484l-.311.875-.912-.128-38.271-.008z" fill="#005ef0"/>
  </g>
  <g>
    <path fill="#fac5ca" d="M185.2685 445.4212l3.7851 1.2842-1.6694 4.9207-3.7852-1.2843z"/>
    <path d="M199.472 370.535c-.569.047 5.122 29.072 2.561 37.893-2.561 8.821-11.667 40.833-11.667 40.833l-7.967-2.561s4.268-25.752 5.691-31.87c1.423-6.118-4.553-22.337-4.553-22.337l5.406-22.479 10.529.521z" fill="#0b52ff"/>
    <path d="M171.159 370.298s.142 16.504.427 28.455c.285 11.951-.996 51.504-.996 51.504l5.976-.142 14.939-79.816h-20.346z" fill="#2075ff"/>
    <path d="M173.873 452.811c1.32 0 2.641-.213 3.024 0s7.454 2.811 7.539 3.407c.085.596 1.022 1.533-1.406 1.491-2.428-.043-11.117.682-11.67.383-.554-.298-.298-5.026.17-5.196.469-.17 2.343-.085 2.343-.085zM185.422 449.927c1.263.386 2.588.568 2.892.884.304.316 5.578 2.894 6.557 4.001.295.333 1.022 1.406-1.491 1.704-.907.108-3.25.052-5.116-.408-3.094-.763-6.514-1.587-6.79-1.866-.442-.447 1.184-4.893 1.682-4.919.499-.026 2.266.604 2.266.604z" fill="#25228a"/>
    <path d="M216.687 354.6s5.975-1.28 6.26-.711c.285.569-.711 1.423-.711 1.423s5.264 0 5.549.711c.285.711-4.837 4.695-9.817 4.126s-8.821-3.557-8.821-3.557l4.126-2.134 3.414.142z" fill="#fac5ca"/>
    <path d="M183.632 322.257c1.153.288 7.209 3.699 6.07 6.45-1.138 2.751 4.553 14.322 4.553 14.322l19.539 10.623-4.173 4.837s-24.566-6.165-25.42-9.295c-.854-3.13-5.501-8.631-3.415-17.642 2.087-9.011-1.327-10.339 2.846-9.295z" fill="#ff3784"/>
    <path d="M182.172 316.876l2.665-5.673.774-1.805-1.633-3.61 7.135-4.212 7.994-.344 1.203 2.665s-.43 13.324-5.072 13.238c-4.642-.086-5.587-.344-5.587-.344l-.344 1.633 1.031 1.633s-4.814.86-7.392-.43c-2.579-1.289-.774-2.751-.774-2.751z" fill="#fac5ca"/>
    <path d="M191.976 302.333s8.46 2.426 8.986.909c.526-1.517.961-4.332.961-4.332s-4.724-.211-7.243-1.23c-2.52-1.02-10.449-3.671-11.148 1.97-.699 5.641.087 13.7.087 13.7l1.759-.579.173-5.501s.451-3.072 1.942-2.117c1.49.955-.476 13.061-.476 13.061s6.473 3.449 8.613 2.292c2.14-1.158 3.212-7.137 3.212-7.137s-3.823-.508-4.923.542c-1.099 1.051-3.759-.495-3.759-.495l1.816-11.083z" fill="#0b52ff"/>
    <path d="M189.892 319.316s4.268 3.13 4.743 4.268c.474 1.138 4.41 38.604 4.41 38.604l1.774 13.829-31.006-.669s6.325-49.582 6.705-50.056c.379-.474 5.691-8.157 6.355-7.967.664.189 3.225 2.655 7.019 1.991z" fill="#ff769d"/>
    <path d="M208.95 337.772v2.58c4.099 0 7.769 1.833 10.237 4.724 2.891 2.468 4.725 6.138 4.725 10.237 0 7.431-6.024 13.455-13.455 13.455-.509 0-1.012-.029-1.507-.085v1.158c8.856 0 16.035-7.179 16.035-16.035 0-8.854-7.179-16.034-16.035-16.034z" fill="#2075ff"/>
    <path d="M209.275 341.241v.67c.39-.034.784-.052 1.182-.052 1.647 0 3.224.296 4.682.838.059-.08.17-.106.258-.055.07.04.106.118.097.193 1.355.547 2.599 1.309 3.693 2.242-2.468-2.891-6.138-4.724-10.237-4.724v.564c.179-.001.325.145.325.324z" fill="#b9ddff"/>
    <path d="M208.95 367.262v1.422c.495.055.997.085 1.507.085 7.431 0 13.455-6.024 13.455-13.455 0-4.099-1.833-7.769-4.725-10.237 2.006 2.35 3.218 5.399 3.218 8.731.001 7.43-6.023 13.454-13.455 13.454z" fill="#2075ff"/>
    <path d="M215.47 342.911l-.526.911a.1976.1976 0 0 1-.342-.198l.526-.911c.003-.006.008-.011.012-.017-1.458-.541-3.036-.838-4.682-.838-.398 0-.792.018-1.182.052v1.057c0 .179-.146.325-.325.325v8.553l1.9-5.216-1.141 6.479c.043.047.082.099.115.157a.9115.9115 0 0 1-.476 1.311l-.398.186v9.56c.179 0 .325.146.325.325v1.727c0 .179-.146.325-.325.325v.564c7.431 0 13.455-6.024 13.455-13.455 0-3.332-1.212-6.381-3.218-8.731a13.4458 13.4458 0 0 0-3.693-2.242.1947.1947 0 0 1-.025.076zm6.372 10.896c0 .179-.146.325-.325.325h-1.728a.3256.3256 0 0 1-.325-.325c0-.179.146-.325.325-.325h1.728c.179 0 .325.147.325.325zm-2.906-5.993l.911-.526a.1985.1985 0 0 1 .27.072c.054.094.022.216-.072.27l-.911.526a.1985.1985 0 0 1-.27-.072.1976.1976 0 0 1 .072-.27zm-.073 11.717a.1976.1976 0 0 1 .27-.072l.911.526a.1976.1976 0 0 1-.198.342l-.911-.526a.1997.1997 0 0 1-.072-.27zm-3.466 5.443a.1985.1985 0 0 1-.27-.072l-.526-.911a.1985.1985 0 0 1 .072-.27.1985.1985 0 0 1 .27.072l.526.911c.055.094.022.215-.072.27z" fill="#fff"/>
    <path d="M200.22 364.045c-2.891-2.468-4.725-6.138-4.725-10.237 0-7.431 6.024-13.455 13.455-13.455v-2.58c-8.856 0-16.035 7.179-16.035 16.035s7.179 16.035 16.035 16.035v-1.158c-3.486-.389-6.569-2.109-8.73-4.64z" fill="#2075ff"/>
    <path d="M195.495 353.807c0 4.099 1.834 7.769 4.725 10.237a13.4458 13.4458 0 0 1-2.242-3.693.1972.1972 0 0 1-.193-.097c-.051-.088-.025-.199.055-.258-.541-1.458-.838-3.036-.838-4.682 0-.397.018-.79.052-1.179 0-.002-.001-.003-.003-.003h-.653c-.165 0-.312-.118-.334-.281a.3253.3253 0 0 1 .322-.368h.738c.001 0 .002-.001.003-.002.813-5.965 5.534-10.685 11.499-11.497v-.743c0-.179.146-.325.325-.325v-.564c-7.432 0-13.456 6.024-13.456 13.455zm3.543-5.723a.1976.1976 0 0 1-.27.072l-.911-.526a.1976.1976 0 0 1 .198-.342l.911.526c.093.054.126.176.072.27zm3.466-5.443a.1985.1985 0 0 1 .27.072l.526.911c.054.094.022.216-.072.27a.1985.1985 0 0 1-.27-.072l-.526-.911a.1968.1968 0 0 1 .072-.27z" fill="#b9ddff"/>
    <path d="M200.22 364.045c2.161 2.532 5.245 4.251 8.731 4.64v-1.422c-3.333-.001-6.381-1.212-8.731-3.218z" fill="#2075ff"/>
    <path d="M208.95 366.699a.3256.3256 0 0 1-.325-.325v-1.727c0-.179.146-.325.325-.325v-9.56l-8.899 4.147 8.4-5.885a.8043.8043 0 0 1 .094-.068l.404-1.109v-8.553a.3256.3256 0 0 1-.325-.325v-.985c-5.965.812-10.686 5.532-11.499 11.496 0 .002.001.003.003.003h.97c.166 0 .316.118.337.283.025.197-.13.366-.322.366h-1.057c-.001 0-.003.001-.003.003-.034.389-.052.782-.052 1.179 0 1.647.296 3.224.838 4.682.006-.004.011-.009.017-.012l.903-.521c.089-.052.207-.033.267.051.069.096.039.23-.061.287l-.911.526a.194.194 0 0 1-.077.025c.547 1.355 1.309 2.599 2.242 3.693 2.35 2.006 5.399 3.218 8.731 3.218v-.564zm-5.65-2.709l-.526.911a.1976.1976 0 0 1-.342-.198l.526-.911a.1976.1976 0 0 1 .27-.072c.093.055.126.176.072.27z" fill="#fff"/>
    <path d="M209.275 341.911v-.67c0-.179-.146-.325-.325-.325v1.027c.108-.012.217-.022.325-.032z" fill="#2075ff"/>
    <path d="M208.95 343.293c.179 0 .325-.146.325-.325v-1.057c-.109.009-.217.02-.325.032v1.35zM208.95 340.916c-.179 0-.325.146-.325.325v.743c.108-.015.216-.028.325-.04v-1.028z" fill="#2075ff"/>
    <path d="M208.95 343.293v-1.35c-.109.012-.217.025-.325.04v.985c.001.179.147.325.325.325zM202.957 343.822a.1976.1976 0 0 0 .342-.198l-.526-.911a.1976.1976 0 0 0-.342.198l.526.911zM214.944 363.793a.1976.1976 0 0 0-.342.198l.526.911a.1976.1976 0 0 0 .342-.198l-.526-.911zM197.784 360.254c.04.07.118.106.193.097-.048-.118-.094-.236-.138-.355-.08.059-.106.17-.055.258z" fill="#2075ff"/>
    <path d="M198.965 359.801a.1976.1976 0 0 0-.198-.342l-.911.526c-.006.004-.011.008-.017.012.044.119.09.238.138.355a.2047.2047 0 0 0 .077-.025l.911-.526zM218.863 348.084c.054.094.176.127.27.072l.911-.526a.1976.1976 0 0 0-.198-.342l-.911.526a.1994.1994 0 0 0-.072.27zM208.626 364.647v1.727c0 .179.146.325.325.325v-2.377c-.179 0-.325.146-.325.325z" fill="#2075ff"/>
    <path d="M209.275 366.374v-1.727c0-.179-.146-.325-.325-.325v2.377c.179 0 .325-.146.325-.325zM219.465 353.807c0 .179.146.325.325.325h1.728c.179 0 .325-.146.325-.325 0-.179-.146-.325-.325-.325h-1.728c-.179 0-.325.147-.325.325zM196.386 353.482c-.193 0-.348.171-.322.368.022.164.169.281.334.281h.653c.001 0 .002-.001.003-.002.019-.216.043-.431.072-.644 0-.002-.001-.003-.003-.003h-.737z" fill="#2075ff"/>
    <path d="M198.436 353.766c-.021-.165-.17-.283-.337-.283h-.971c-.001 0-.002.001-.003.002-.029.213-.053.428-.072.645 0 .002.001.003.003.003h1.057c.193-.001.348-.17.323-.367zM198.965 347.814l-.911-.526c-.094-.054-.216-.022-.27.072s-.022.216.072.27l.911.526c.094.054.216.022.27-.072s.022-.216-.072-.27zM218.936 359.801l.911.526c.094.054.216.022.27-.072a.1985.1985 0 0 0-.072-.27l-.911-.526a.1985.1985 0 0 0-.27.072.1979.1979 0 0 0 .072.27zM203.227 363.72a.1985.1985 0 0 0-.27.072l-.526.911a.1985.1985 0 0 0 .072.27c.094.054.216.022.27-.072l.526-.911a.1979.1979 0 0 0-.072-.27zM215.397 342.641c-.088-.051-.199-.025-.258.055.119.044.238.09.355.138a.1964.1964 0 0 0-.097-.193z" fill="#2075ff"/>
    <path d="M214.601 343.624a.1985.1985 0 0 0 .072.27c.094.054.216.022.27-.072l.526-.911a.194.194 0 0 0 .025-.077c-.118-.048-.236-.094-.355-.138-.004.006-.009.011-.012.017l-.526.911zM208.746 354.485a.6565.6565 0 0 1-.425-.911l.226-.62a.9404.9404 0 0 0-.094.068l-8.4 5.885 8.899-4.147v-.255a.5998.5998 0 0 1-.206-.02z" fill="#2075ff"/>
    <path d="M209.549 354.021a.6554.6554 0 0 1-.599.485v.255l.398-.186a.884.884 0 0 0 .143-.067c.436-.251.585-.808.333-1.244a.8693.8693 0 0 0-.115-.157l-.141.8a.5325.5325 0 0 1-.019.114zM208.581 352.933a.9006.9006 0 0 1 .369-.117v-.97l-.404 1.109c.012-.007.023-.015.035-.022z" fill="#2075ff"/>
    <path d="M209.71 353.109l1.141-6.479-1.9 5.216v.97c.281-.027.564.079.759.293z" fill="#2075ff"/>
    <path d="M208.282 353.682c-.094.35.114.71.464.804.069.018.137.025.205.021v-.272a.4268.4268 0 0 1-.427-.427c0-.236.191-.427.427-.427v-.565a.9159.9159 0 0 0-.369.117c-.012.007-.023.015-.035.022l-.226.62a.6182.6182 0 0 0-.039.107z" fill="#2075ff"/>
    <path d="M208.95 352.816v.565c.236 0 .427.191.427.427s-.191.427-.427.427v.272a.6577.6577 0 0 0 .599-.485c.01-.037.016-.075.02-.112l.141-.8a.9091.9091 0 0 0-.76-.294z" fill="#2075ff"/>
    <path d="M209.377 353.807c0-.236-.191-.427-.427-.427v.854c.236 0 .427-.191.427-.427z" fill="#e9eaee"/>
    <path d="M208.524 353.807c0 .236.191.427.427.427v-.854c-.236.001-.427.192-.427.427z" fill="#e9eaee"/>
    <path d="M199.045 362.188s5.976-1.28 6.26-.711c.285.569-.711 1.423-.711 1.423s5.264 0 5.549.711c.285.711-4.837 4.695-9.817 4.126s-8.821-3.557-8.821-3.557l4.126-2.134 3.414.142z" fill="#fac5ca"/>
    <path d="M181.83 317.514c1.153.288 2.94 2.751 1.802 5.501-1.138 2.751-7.019 27.601-7.019 27.601l19.539 10.623-4.173 4.837s-24.566-6.165-25.42-9.295c-.854-3.13.379-13.943 2.466-22.954 2.087-9.01 8.632-17.356 12.805-16.313z" fill="#ff3784"/>
  </g>
  <g>
    <path d="M223.257 110.016c-.108 1.284-.321 2.411-.574 3.373v8.405c.567-.215 1.135-.432 1.703-.648 5.604-5.274 5.96-12.208 5.519-16.424l-6.72.871c.181 1.629.183 3.108.072 4.423z" fill="#fac5ca"/>
    <path d="M186.846 131.652c-2.986.323-5.76.7-8.277 1.124.07.149.111.235.111.235l-.183.142c1.485-.265 3.194-.209 4.603.047 3.01.547 7.387 1.55 7.387 1.55l.052.431 5.825-.369-.016-.125s.135-.084.387-.239c-3.163-.698-6.12-1.473-8.504-2.315-.466-.164-.928-.324-1.385-.481z" fill="#ffdeed"/>
    <path d="M195.383 118.936l.214-1.603.015-.739c-.298-.292-1.399-1.529-1.537-3.987-.039-.699.533-3.564.69-4.467l-6.728.197c-.226 2.837.186 6.124 2.191 9.186 1.672.383 3.401.863 5.155 1.413z" fill="#fac5ca"/>
    <path d="M197.595 108.969h4.035c-.302-.1-.57-.299-.737-.604-.5-.916-1.21-1.666-1.923-2.415-.625-1.824-1.756-4.716-1.756-4.716l.228 3.114-.308.551.075.666.386 3.404zM222.341 108.969l-.09-4.651 1.371.702c.105.054.212-.069.143-.165-.698-.976-1.449-2.852-1.874-3.55-.286-.469-.436-1.001-.595-1.522-.015-.049-.09-.244-.16-.439-.093.211-.164.411-.12.304-.124.297-.119.688-.138 1.001-.048.781-.027 1.565-.004 2.347.046 1.603.218 3.274-.152 4.852-.261 1.112-1.564 1.233-2.329.615-1.232-.996-2.806-1.649-3.872-2.788-1.518.898-3.173 1.562-4.805 2.218-.742.298-1.481-.327-1.714-.973-.09-.251-.166-.504-.231-.757-1.231.778-2.545 1.185-3.751.696-.211.514-.445 1.019-.718 1.508-.169.303-.443.504-.748.604h19.787z" fill="#ff7a00"/>
    <path d="M209.776 116.629c0-.554-.449-1.003-1.003-1.003-.554 0-1.003.449-1.003 1.003 0 .554.449 1.003 1.003 1.003.553.001 1.003-.448 1.003-1.003z" fill="#0b52ff"/>
    <path d="M221.91 137.886l8.64.267-.365-3.01.452-.113.004-.161-5.342-.956c-.838.18-1.729.368-2.658.563l-.731 3.41zM190.54 135.181l.313 2.579-.382.095 6.336.368-.442-3.411z" fill="#fac5ca"/>
    <path d="M186.846 131.652c.457.157.919.317 1.386.482 2.384.842 5.341 1.617 8.504 2.315 1.599-.979 7.969-4.803 15.253-8.168-5.264-2.515-11.734-5.331-17.922-7.288l-.18-.057c-1.754-.55-3.483-1.03-5.155-1.414-2.376-.546-4.634-.897-6.678-.977-2.445-.096-4.583.196-6.247 1.005-1.148.558-2.072 1.361-2.714 2.454-2.045 3.483-.906 5.569 2.131 7.28.375.211.779.417 1.21.619 2.652 1.243 6.311 2.343 10.412 3.749zM210.548 136.941c6.34.954 11.247 1.486 11.247 1.486l.116-.541.73-3.409c-3.722.78-8.057 1.657-12.093 2.464z" fill="#0b52ff"/>
    <path d="M242.457 117.633c-1.997-.698-4.6-.496-7.515.187-.911.214-1.852.473-2.816.768-2.329.713-4.785 1.625-7.241 2.558-.568.216-1.136.432-1.703.648-1.267.482-2.525.958-3.759 1.403-2.485.896-5.01 1.965-7.434 3.085-7.285 3.365-13.654 7.189-15.253 8.168-.252.154-.387.239-.387.239l.016.125.442 3.411.18 1.389s6.296-1.22 13.56-2.672c4.036-.806 8.372-1.684 12.093-2.464.929-.195 1.82-.383 2.658-.563 3.484-.747 6.062-1.343 6.71-1.598.503-.198 1.401-.549 2.51-1.018 2.863-1.213 7.133-3.218 9.646-5.432.415-.366.782-.738 1.087-1.112.765-.94 1.14-1.899.893-2.835-.077-.293-.165-.57-.263-.832-.343-.915-.812-1.644-1.39-2.212a5.1339 5.1339 0 0 0-.717-.587c-.354-.24-.737-.436-1.147-.592a4.2694 4.2694 0 0 0-.17-.064z" fill="#2075ff"/>
    <path d="M230.55 138.153s4.378 1.003 7.387 1.55c3.01.547 7.387.182 8.026-2.28.638-2.463-2.554-3.922-3.739-4.378-1.186-.456-9.85 1.55-9.85 1.55l-1.737.434-.452.113.365 3.011zM190.54 135.181l-.052-.431s-4.378-1.003-7.387-1.55c-1.409-.256-3.118-.312-4.603-.047-.258.046-.508.103-.749.169-1.338.366-2.386 1.049-2.673 2.158-.638 2.463 2.554 3.922 3.739 4.378 1.186.456 9.85-1.551 9.85-1.551l1.808-.452.381-.095-.314-2.579z" fill="#25228a"/>
    <path d="M196.011 109.324l.857-3.948.266-.477.308-.551-.228-3.114s1.132 2.892 1.756 4.716c.714.749 1.424 1.498 1.923 2.415.166.305.435.504.737.604h.921c.306-.1.579-.3.748-.604.273-.489.506-.994.718-1.508 1.205.488 2.519.081 3.751-.696.065.253.141.506.231.757.233.646.972 1.271 1.714.973 1.633-.656 3.288-1.32 4.805-2.218 1.066 1.14 2.641 1.792 3.872 2.788.765.618 2.068.496 2.329-.615.37-1.578.198-3.249.152-4.852-.022-.781-.044-1.566.004-2.347.019-.313.015-.703.138-1.001-.045.108.027-.093.12-.304.069.195.145.39.16.439.159.521.309 1.053.595 1.522.425.698 1.177 2.574 1.874 3.55.069.096-.038.219-.143.165l-1.371-.702.09 4.651h.054l-.004-.48-.022-2.726.505.632-.187 1.994 8.165-.81s-1.878-8.275-2.742-10.097c-.465-.98-1.63-3.048-1.994-3.74-1.739-3.303-12.812-5.857-13.796-5.997l-.037.331c-.15 1.352-.833 2.528-1.825 3.327-.134.121-.276.232-.428.328-.089.056-.185.106-.283.151-.717.397-1.539.622-2.41.622-1.972 0-3.703-1.156-4.504-2.862l-.215-.824s-.326.367-.433.388c-.084.017-.198.039-.339.068-1.723.349-7.345 1.562-8.76 2.778-.143.123-.284.252-.423.386-3.826 3.681-4.527 11.772-5.314 14.793-.209.802-.313 1.282-.313 1.282l8.978.813z" fill="#ff9a00"/>
    <path d="M212.986 81.38v.336l.037-.338a.4349.4349 0 0 1-.037.002z" fill="#fac5ca"/>
    <path d="M208.587 88.574c-.437.236-.92.379-1.457.385-.62.007-1.163-.174-1.641-.473-3.417-.739-3.417-3.695-3.417-3.695v-4.295c.62.191.572.953.572.953 0 2.192.81 2.097.81 2.097s1.001-.095 1.096-1.287c.095-1.191 1.048-1.43 1.048-1.43h3.813c1.43 0 1.335 2.526 2.049 2.526.715 0 .858-1.144.858-1.906 0-.763.667-1.001.667-1.001v.573c.102-.048.219-.113.354-.202 1.101-.727 1.277-3.715.738-3.914-.539-.199-.492.586-.551 1.805-.029.599-.307.838-.582.926v-5.667c-.355-.342-.682-.771-.951-1.269-.01-.018-.018-.036-.028-.054-.034-.065-.069-.131-.101-.198a5.68 5.68 0 0 1-.107-.237c-.005-.013-.011-.024-.017-.037a5.7155 5.7155 0 0 1-.325-1.052c-.009-.043-.019-.086-.027-.129-1.133.268-2.421.421-3.788.421-1.624 0-3.136-.215-4.409-.584-.005.039-.014.079-.02.118-.055.341-.146.691-.274 1.042-.031.084-.061.168-.096.253-.002.005-.004.009-.006.014-.039.093-.08.184-.123.273-.037.076-.075.149-.115.222-.008.015-.015.03-.023.044-.288.526-.64.973-1.023 1.321v5.518c-.275-.089-.553-.327-.582-.926-.059-1.219-.012-2.004-.551-1.805-.539.199-.363 3.187.738 3.914.154.101.283.171.395.22v.342c-.011 0-.022-.002-.033-.002l1.077 5.693.062 1.932c.07.512.005.19.215.637.801 1.707 2.532 2.862 4.504 2.862a4.9613 4.9613 0 0 0 3.121-1.101c.992-.799 1.675-1.975 1.825-3.327l.037-.331.115-1.036c-.571.814-1.694 1.621-3.847 1.867zM215.044 72.239c0-.024.002-.049.002-.073 0 .024-.002.048-.002.073z" fill="#fac5ca"/>
    <path d="M208.587 88.574c-.43.049-.899.077-1.415.077-.637 0-1.195-.06-1.683-.166.478.299 1.021.48 1.641.473.536-.005 1.02-.148 1.457-.384z" fill="#d4a9ae"/>
    <path d="M215.046 72.381c0 .078-.002.159-.004.242.003-.083.004-.164.004-.242zM215.04 72.697c-.002.061-.005.123-.008.186.003-.063.005-.125.008-.186zM199.414 72.628c-.002-.084-.004-.167-.004-.246 0 .079.002.161.004.246zM199.425 72.898a6.799 6.799 0 0 1-.009-.197l.009.197z" fill="#fac5ca"/>
    <path d="M201.478 81.381c.011 0 .022.002.033.002v-.342c-.111-.049-.241-.119-.395-.22-1.102-.727-1.277-3.715-.738-3.914.539-.199.492.586.551 1.805.029.599.307.838.582.926V74.12c.382-.348.734-.795 1.023-1.321.008-.014.015-.03.023-.044.039-.073.078-.146.115-.222.043-.089.084-.18.123-.273.002-.005.004-.009.006-.014.035-.084.066-.168.096-.253.129-.351.22-.701.274-1.042.006-.039.015-.079.02-.118 1.273.369 2.785.584 4.409.584 1.367 0 2.655-.153 3.788-.421.008.043.018.086.027.129.072.346.177.7.325 1.052.005.013.011.024.017.037.034.08.07.16.107.237.032.067.067.133.101.198.009.018.018.036.028.054.269.498.595.927.951 1.269v5.667c.275-.089.553-.327.582-.926.059-1.219.012-2.004.551-1.805.539.199.363 3.187-.738 3.914-.135.089-.252.154-.354.202v-.573s-.667.238-.667 1.001c0 .763-.143 1.906-.858 1.906s-.62-2.526-2.049-2.526h-3.813s-.953.238-1.048 1.43c-.095 1.192-1.096 1.287-1.096 1.287s-.81.095-.81-2.097c0 0 .048-.763-.572-.953v4.295s0 2.956 3.417 3.695c.488.105 1.046.166 1.683.166.516 0 .985-.028 1.415-.077 2.153-.246 3.276-1.053 3.846-1.865.441-.628.553-1.258.553-1.632V81.72v-.336c.013 0 .025-.002.037-.002.482-.021.919-.234 1.254-.575.031-.031.062-.062.091-.096.015-.017.029-.036.044-.054.039-.048.077-.098.113-.149.272-.397.43-.898.417-1.44l.02-1.361v-.009l.032-2.241.036-2.527c.001-.015.001-.028.002-.043.003-.063.006-.125.008-.186l.003-.074c.002-.082.004-.163.004-.242v-.007c0-.046-.001-.091-.002-.135 0-.025.002-.049.002-.073 0-.048-.003-.095-.004-.142l.004-.254-.005.001-.005.001a7.778 7.778 0 0 0-.149-1.182c-.417-2.036-1.624-3.783-3.288-4.907-.138-.094-.281-.181-.426-.266-.003-.002-.007-.004-.01-.006-.069-.041-.138-.082-.209-.12-.031-.017-.062-.032-.093-.048-.013-.007-.026-.013-.039-.02a7.4945 7.4945 0 0 0-.284-.141c-.022-.01-.045-.02-.067-.03-.066-.03-.132-.062-.2-.09-.022-.009-.045-.017-.066-.026-.031-.013-.063-.025-.095-.037-.064-.026-.128-.052-.194-.076-.018-.007-.037-.012-.055-.019-.04-.014-.081-.027-.122-.041-.077-.026-.153-.052-.231-.076-.049-.015-.098-.028-.147-.042-.06-.017-.119-.035-.18-.051-.011-.003-.023-.005-.035-.008-.057-.015-.116-.027-.174-.04-.065-.015-.13-.031-.196-.044-.066-.013-.133-.024-.201-.036-.059-.01-.117-.022-.177-.031-.077-.012-.156-.02-.234-.03-.05-.006-.1-.014-.15-.019-.095-.009-.19-.016-.286-.022-.035-.002-.07-.006-.105-.008-.132-.007-.264-.01-.398-.01-.133 0-.266.004-.398.01-.035.002-.07.006-.105.008a6.748 6.748 0 0 0-.286.022c-.05.005-.1.012-.15.019-.078.009-.157.018-.234.03-.059.009-.118.02-.177.031-.067.012-.134.022-.201.036-.066.013-.131.029-.196.044-.058.013-.116.026-.174.04-.011.003-.023.005-.035.008-.061.016-.12.034-.18.051-.049.014-.098.027-.147.042-.038.011-.075.024-.113.036-.04.013-.079.027-.118.04-.04.014-.081.027-.122.041-.084.03-.166.062-.249.095-.031.013-.063.024-.095.037-.09.037-.178.076-.266.117-.022.01-.045.02-.067.03-.096.045-.191.092-.284.141-.013.007-.026.013-.038.02-.102.054-.203.11-.303.168a.088.088 0 0 1-.01.006c-1.773 1.039-3.102 2.755-3.627 4.795-.129.502-.21 1.024-.236 1.561l-.01-.003.004.253c-.001.048-.004.095-.004.143 0 .012 0 .024.001.036 0 .012.001.024.001.037 0 .024-.001.048-.001.072 0 .023-.001.046-.001.07 0 .08.001.162.004.246l.003.073c.002.064.005.13.009.197 0 .007.001.014.001.022l.041 2.905.046 3.24c-.024 1.253.86 2.291 1.969 2.312z" fill="#3d3dae"/>
    <path d="M194.116 116.594l-.015.739c-.012.574-.023 1.133-.033 1.659 6.188 1.957 12.658 4.772 17.922 7.288 2.424-1.12 4.949-2.189 7.434-3.085 1.234-.445 2.493-.921 3.759-1.403v-12.826H194.268l-.017 1.099-.07 3.426c-.022.995-.044 2.061-.065 3.103zm13.653.035c0-.554.449-1.003 1.003-1.003.554 0 1.003.449 1.003 1.003 0 .554-.449 1.003-1.003 1.003-.554.001-1.003-.448-1.003-1.003z" fill="#fff"/>
  </g>
  <g>
    <path d="M407.485 453.427c-1.748.991-4.369 2.417-6.491 3.31-3.51 1.478-2.605 3.316-1.663 3.881.941.565 11.107-.128 13.668-2.759.498-.512.533-1.475.442-2.305-1.833-.594-5.498-1.782-5.92-1.923-.017-.005-.028-.079-.036-.204zM435.518 454.478c-1.453 1.154-3.352 2.462-5.143 3.091-3.418 1.201-2.327 2.854-1.386 3.418.941.565 10.287-.212 12.562-2.8.474-.54.004-2.114-.503-3.439-1.166-.043-4.84-.175-5.473-.175-.015 0-.035-.039-.057-.095z" fill="#2f3081"/>
    <path d="M421.15 371.478l.184 10.097s-8.731-.949-9.892-.995c-.591 9.643-4.204 68.982-3.957 72.847.008.125.02.199.036.204.422.141 4.087 1.329 5.92 1.923l1.035.336 11.922-69.1-3.148-15.626-2.1.314z" fill="#2a70b6"/>
    <path d="M431.517 369.93l-8.268 1.234 3.148 15.626s8.08 65.009 9.12 67.688c.022.056.042.095.057.095.632 0 4.306.132 5.473.175.223.008.364.014.364.014l.752-72.049-10.245-1.537-.401-11.246z" fill="#6690bf"/>
    <path fill="#f9c4c8" d="M377.864 355.812l-2.881-.758-2.711 3.155 1.198 1.597 1.398 3.395 2.796.2 3.195.599.4-2.596 2.23-1.858-.75-5.034zM358.424 367.334c.369 1.846.811 4.056 1.302 6.517.077-.812.056-1.63-.158-2.345-.331-1.104-.532-2.021-.66-2.728-.173-.957-.206-1.517-.206-1.517l-.278.073zM339.556 449.299l-.26 1.906s4.851 2.686 5.544 2.512c.693-.606-2.772-4.765-2.772-4.765l.043-.859-2.503-.255c-.027.922-.052 1.461-.052 1.461zM367.836 449.233c.025.062.079.371.158.759.635.348 4.815 2.624 5.456 2.463.693-.173-.52-1.819-.52-1.819s.232.118.603.314c-1.073-.641-2.338-1.363-2.472-1.998-.119-.565-.266-1.211-.434-1.912l-3.086.134c.157 1.204.261 1.974.295 2.059z"/>
    <path d="M339.296 451.205s-1.3 3.032-.78 3.465c.52.433 11.784 4.342 11.982 1.691.097-1.295-6.178-4.463-6.178-4.463s1.213 1.646.52 1.819c-.692.174-5.544-2.512-5.544-2.512zM373.449 452.455c-.64.16-4.82-2.115-5.456-2.463-.052-.029-.089-.049-.089-.049s-1.3 3.032-.78 3.465c.52.433 11.784 4.343 11.982 1.691.078-1.048-4.007-3.318-5.575-4.15-.371-.197-.603-.314-.603-.314s1.214 1.647.521 1.82zM358.424 367.334c-.679-3.396-1.109-5.53-1.109-5.53s-5.445 7.372-7.96 20.784c0 0 8.288 24.006 9.328 32.632.975 8.085 6.04 32.078 6.04 32.078l2.82-.123 3.086-.134.268-.012s-2.406-27.843-4.026-36.641c-1.443-7.833-4.818-24.871-7.144-36.537l-1.303-6.517z" fill="#004e4a"/>
    <path d="M357.315 361.804l-3.958-.331-.433-2.631h-.004c0 .037.001.059.001.059l-3.492-.113-.748-.012-.131 2.296-10.523-.88c-1.093 2.619-2.237 5.691-2.717 8.091-.537 2.684 2.09 24.254.959 44.118-1.061 18.641.671 35.165.671 35.165l2.669.272 2.503.255 1.404.144s2.1-24.261 2.819-32.346c.74-8.327 1.479-25.086 3.02-33.303 2.515-13.412 7.96-20.784 7.96-20.784z" fill="#008288"/>
    <path d="M429.028 318.753l.096-5.157-.334.478-1.398-3.195c3.195-1.398 2.796-4.993 1.398-5.792-1.398-.799-2.396 2.796-2.396 2.796l-1.398-1.198-.402-4.56-2.224-2.053-3.994-.333s-1.657.304-3.365.468v2.285c0 .599-2.396 13.58 5.592 12.981l.784 4.031 2.811.562 4.83-1.313zM343.114 306.684c-.526 1.974.333 2.903.982 3.311l.616.284s2.576 7.455.079 10.118c-.113.121-.239.242-.37.362.409.053.924.126 1.492.223.1.017.203.035.305.054l-.011-.037c.062.043.128.073.191.113.03.016.06.031.09.053.968.573 2.037.775 2.688.841l1.326-6.134c6.99-.2 4.394-12.981 4.394-12.981l-.998-2.796-7.789 6.391c.001-.002-2.196-2.798-2.995.198z" fill="#f9c4c8"/>
    <path fill="#fff" d="M429.901 318.516l-.098.026.101.023zM421.15 371.478l2.099-.314 8.268-1.234-1.834-51.355-.655.178-4.832 1.311-2.811-.562-1.183-.237z"/>
    <path d="M439.417 324.452c.197-.985 1.031-2.91 2.108-3.353l-11.621-2.535-.102-.023-.122-.026.002.059 1.834 51.355.401 11.245 10.245 1.537 1.738.261.112-8.857c-.735-7.45-1.937-19.119-2.791-24.885-1.312-8.861-1.968-23.957-1.804-24.778zM410.089 344.286c-.032.064-.066.132-.103.203.038-.073.07-.138.103-.203zM407.215 349.569c-.047.079-.093.158-.14.236.047-.078.093-.157.14-.236zM406.581 350.614c-.028.044-.056.086-.083.131.027-.044.055-.086.083-.131zM406.086 351.385c-.056.085-.112.167-.168.25.057-.083.112-.164.168-.25zM405.591 352.115c-.061.087-.122.171-.182.255.061-.084.121-.168.182-.255zM407.734 348.677c-.057.099-.113.198-.17.297.058-.1.114-.198.17-.297zM409.503 345.43c-.034.065-.064.125-.1.192.035-.068.066-.127.1-.192zM408.646 347.043c-.052.096-.106.194-.159.291.053-.098.107-.195.159-.291zM408.211 347.833c-.059.105-.118.211-.178.318.06-.107.119-.212.178-.318zM405.099 352.788c-.059.077-.118.154-.176.228.059-.073.117-.151.176-.228zM391.285 359.464c-.575.205-1.138.402-1.68.591.542-.189 1.105-.387 1.68-.591zM409.835 344.787c-.036.071-.072.141-.112.218.04-.078.074-.146.112-.218zM394.826 358.176zM388.809 360.331zM404.607 353.397c-.049.057-.099.118-.147.171.049-.053.099-.114.147-.171zM402.973 354.72c-.468.261-1.043.546-1.699.848.656-.302 1.231-.587 1.699-.848zM400.592 355.874c-.471.207-.974.421-1.5.639.526-.217 1.029-.431 1.5-.639zM409.045 346.301c-.032.061-.068.126-.101.188.033-.062.068-.127.101-.188z" fill="#f17599"/>
    <path d="M445.529 380.873c-.903 1.694-2.734 5.457-1.344 5.766 1.797.399 6.391-.399 6.391-1.398 0-.795.506-3.486.712-4.55l-5.759.182z" fill="#f9c4c8"/>
    <path d="M341.694 345.346c-.28-1.575-1.241-5.627-2.288-9.897-1.066-1.349-2.027-2.715-2.795-4.052-1.834-3.189-1.819-5.717-1.213-8.663.05-.244.333-.357.758-.364l7.385-1.715s.348.034.88.103c.131-.121.256-.242.37-.362 2.497-2.663-.079-10.118-.079-10.118l-.616-.284c-.649-.407-1.508-1.337-.982-3.311.799-2.996 2.996-.2 2.996-.2l7.789-6.391.2-1.598c-1.1-1.649-2.719-2.96-9.305-3.319-.108-.032-.198-.071-.317-.1-4.827-1.165-6.325 1.332-6.325 1.332s-6.158 7.989-9.82 17.642c-3.662 9.653 4.327 6.158-.832 21.803-4.956 15.03 8.207 12.396 14.12 11.871.145-.924.186-1.743.074-2.377z" fill="#004e4a"/>
    <path d="M349.637 321.973c-.022.019-.046.041-.069.061.122.005.21.006.21.006-.046-.022-.101-.102-.141-.067zM352.427 339.258c1.257 1.361 2.591 2.63 3.964 3.807l-.375-7.597.78-2.945c.78-2.945-6.671-10.309-7.017-10.482 0 0 1.91 10.025 2.457 14.817.07.615.133 1.438.191 2.4zM352.92 358.841h.004l.433 2.631 3.958.331-.535-10.842c-1.692-.884-3.12-1.697-4.02-2.335.113 5 .155 9.657.16 10.215zM348.549 361.071l.131-2.296.748.012-.752-.025s.285-5.161.22-13.47c-2.755-2.485-6.526-6.092-9.49-9.844 1.046 4.27 2.008 8.322 2.288 9.897.113.633.071 1.453-.074 2.379-.749 4.771-4.307 12.407-4.307 12.407l.714.06 10.522.88zM346.4 321.111c.03.018.06.035.09.053-.031-.022-.06-.037-.09-.053zM346.219 321.035c-.103-.018-.205-.037-.305-.054-.568-.097-1.083-.17-1.492-.223-.533-.069-.88-.103-.88-.103l-7.385 1.715c2.083-.032 7.894 2.708 10.012 7.558.655 1.5 1.439 2.928 2.317 4.289-.695-7.838-2.174-12.874-2.267-13.182z" fill="#f17b21"/>
    <path d="M348.676 358.763l.752.025 3.492.113s0-.022-.001-.059c-.005-.559-.046-5.215-.159-10.214-.219-.155-.415-.303-.567-.436-.594-.52-1.799-1.547-3.297-2.898.065 8.308-.22 13.469-.22 13.469zM346.4 321.111c-.063-.04-.129-.07-.191-.113 0 0 .008.026.011.037.092.308 1.572 5.344 2.266 13.182 1.164 1.803 2.501 3.482 3.941 5.042-.057-.963-.121-1.785-.191-2.4-.548-4.792-2.457-14.817-2.457-14.817s-.087-.001-.21-.006c-.1-.004-.229-.014-.392-.03-.651-.065-1.72-.268-2.688-.841-.029-.019-.06-.036-.089-.054z" fill="#fff"/>
    <path d="M375.541 354.405s-8.884-3.242-17.227-9.766c-.082-4.369-.025-8.305.3-10.73 1.126-8.403-4.851-10.569-5.631-11.002l-3.205-.866c.346.173 7.797 7.537 7.017 10.482l-.78 2.945.375 7.597c-1.372-1.177-2.707-2.446-3.964-3.807-1.44-1.56-2.777-3.239-3.941-5.042-.879-1.361-1.662-2.789-2.317-4.289-2.118-4.849-7.929-7.589-10.012-7.558-.425.007-.708.12-.758.364-.607 2.945-.621 5.473 1.213 8.663.769 1.337 1.729 2.703 2.795 4.052 2.965 3.752 6.735 7.359 9.49 9.844 1.498 1.352 2.704 2.379 3.297 2.898.152.133.348.28.567.436.9.638 2.328 1.45 4.02 2.335l.535 10.842s.429 2.135 1.109 5.53l.278-.073s.033.559.206 1.517l.66.043s-.644-8.221-1.021-16.957c5.977 2.993 13.725 6.345 13.725 6.345l2.711-3.154.558-.649z" fill="#f6981f"/>
    <path d="M422.368 300.07l2.224 2.053.402 4.56 1.398 1.198s.999-3.595 2.396-2.796c1.398.799 1.797 4.393-1.398 5.792l1.398 3.195.334-.478 2.462-3.517s4.194-4.194 2.397-10.385c-.037-5.369-11.613-7.28-19.436-9.61-7.823-2.33-3.828 8.821-3.162 9.82.325.487 1.998.458 3.626.302 1.707-.164 3.365-.468 3.365-.468l3.994.334z" fill="#2f3081"/>
    <path d="M410.011 333.741c-.026-1.838-.074-3.665-.171-5.487-.203-1.11-.374-2.225-.51-3.346a1.216 1.216 0 0 0-.113.148c-.218.35-.781 1.473-1.551 3.032-.55 1.114-1.207 2.449-1.92 3.884-.571 1.147-1.177 2.358-1.795 3.569-.927 1.816-1.878 3.632-2.768 5.235-.148.267-.295.528-.44.783-1.301 2.289-2.434 4.018-3.107 4.467-.45.3-1.264.719-2.291 1.202-.171.08-.348.163-.53.247-.365.167-.75.341-1.15.519-.4.178-.816.359-1.241.543-.425.184-.859.37-1.297.556-4.163 1.764-8.669 3.524-8.669 3.524l.282 1.895.75 5.034.366 2.457s1.406-.458 3.48-1.166c.461-.157.955-.327 1.474-.506.259-.089.525-.182.796-.276.542-.189 1.104-.387 1.68-.591.576-.205 1.164-.415 1.757-.631.593-.215 1.191-.435 1.785-.656 1.485-.554 2.949-1.121 4.266-1.664.526-.217 1.029-.431 1.5-.639.235-.104.463-.206.682-.306.656-.302 1.231-.587 1.699-.848.468-.262.828-.499 1.052-.705.14-.128.286-.28.435-.446.048-.053.098-.115.147-.171.104-.121.208-.246.316-.381a21.7858 21.7858 0 0 0 .486-.646c.06-.084.121-.168.182-.255.109-.155.217-.315.327-.479.056-.083.112-.165.168-.25.137-.208.274-.422.411-.64.028-.044.056-.087.083-.131.165-.266.331-.536.494-.81.047-.078.093-.157.14-.236.118-.198.234-.397.349-.595.057-.099.114-.198.17-.297.101-.176.2-.352.299-.526a68.8165 68.8165 0 0 0 .453-.818c.053-.097.107-.195.159-.291.103-.189.201-.372.298-.553.033-.062.069-.127.101-.188.126-.237.246-.464.358-.679.035-.067.066-.127.1-.192.077-.148.152-.292.22-.426.04-.077.075-.146.112-.218.054-.105.105-.205.152-.297.036-.071.07-.14.103-.203.015-.029.033-.065.046-.092v-.001c.578-3.439-.075-6.992-.125-10.453z" fill="#ed2c65"/>
    <path d="M421.15 371.478l-.949-52.212s-2.964 1.246-5.823 2.637c-.012.006-.025.012-.037.018-.179.087-.358.175-.536.263-.005.003-.011.005-.016.008-2.017 1.002-3.872 2.04-4.459 2.717.137 1.12.308 2.235.51 3.346.097 1.822.144 3.648.171 5.487.049 3.461.703 7.014.124 10.452.174-.346.28-.564.28-.564l.081 3.22.851 33.727c.019 0 .065.003.093.004 1.161.046 9.892.995 9.892.995l-.182-10.098z" fill="#f17599"/>
    <path d="M451.969 380.669s-.737-28.978-1.394-32.259c-.656-3.282-1.149-26.911-8.533-27.403-.177-.012-.35.024-.517.093-1.077.443-1.911 2.368-2.108 3.353-.164.82.492 15.917 1.805 24.778.854 5.766 2.056 17.435 2.791 24.885.395 3.998.655 6.784.655 6.784l.861-.027 5.759-.182.681-.022z" fill="#ed2c65"/>
  </g>
  <g>
    <path fill="#f9c4c9" d="M62.419 320.844l-4.675 2.687 1.917 3.505 5.525-3.719z"/>
    <path d="M80.41 266.345s-4.056 5.954-4.046 16.829c.011 10.875 2.457 13.42-4.113 21.176-8.399 9.917-11.697 15.424-11.697 16.04.001.616 4.234 5.54 4.234 5.54s19.082-17.936 20.575-21.631c1.493-3.695 6.82-21.141 6.82-21.141l-4.718-14.974-7.055-1.839zM59.661 327.036s4.046 5.979.007 7.634l-4.475-10.106 2.55-1.034 1.918 3.506z" fill="#004e4a"/>
    <path fill="#f9c4c9" d="M100.735 329.048l-.207 6.396-2.762 1.241-.22-7.427z"/>
    <path d="M100.461 265.913s5.534 5.772 6.399 21.039c.865 15.267-4.422 43.745-4.422 43.745l-6.804.007s-.024-24.965.82-31.362c0 0-9.798-17.322-11.291-22.272-1.493-4.95.415-10.11.415-10.11l14.883-1.047z" fill="#008389"/>
    <path d="M108.099 338.532s.421-3.921-8.083-3.087l-2.551.397.003 3.113 10.631-.423z" fill="#004e4a"/>
    <path d="M94.193 220.294s3.496-8.004-4.338-9.996l4.338 9.996zM71.762 257.318s-2.914 17.052-4.357 17.054c-1.443.001-5.01 5.638-6.247 5.839s-2.478-4.798-.83-5.799c1.648-1.002 5.357-2.205 5.357-2.205l6.077-14.889zM107.373 220.062s5.729-3.368 5.727-5.568c-.002-2.2.853-22.221.029-22.62-.825-.399 1.028-3.001-.622-3.8-1.65-.798-3.506-1.597-4.332-3.996-.827-2.399-1.855-.198-.822 2.601s-1.026 4.801 2.274 6.598c0 0 5.79 18.995 2.495 22.599l-4.749 4.186z" fill="#f9c4c9"/>
    <path d="M114.798 193.073c-.207-.6-5.084 1.65-5.084 1.65s-.014 14.878-2.413 19.252c-1.921 3.503-7.279 9.244-13.721 12.52 0 0-17.308 5.617-19.775 12.02-2.467 6.403-7.782 32.984-7.782 32.984l2.827 1.916s3.306-14.095 5.746-17.544c1.916-2.709 5.111-6.024 5.111-6.024s-.104 15.864-.721 17.264c-.617 1.401 17.933 1.182 23.496-1.223 0 0-3.648-16.019-3.863-24.22 0 0 15.522-17.412 17.354-26.143 1.249-5.951-1.175-22.452-1.175-22.452z" fill="#ff769d"/>
    <path d="M86.76 207.301c-1.855-.398-12.072.897-10.084 15.811.862 6.464 5.953 12.492 13.295 7.275 8.11-5.763 3.812-8.292 3.6-14.092s-6.811-8.994-6.811-8.994z" fill="#008389"/>
    <path d="M80.727 215.696c-.001-1.327 1.591-4.647-1.602-5.971-3.193-1.324-4.107-4.641-6.156-1.764-2.049 2.878-6.833 5.758-5.919 7.526.913 1.769.689 5.529 2.285 6.191 1.596.662 4.104 1.323 6.383.657s2.737 1.988 3.875-.225c1.138-2.211 1.134-6.414 1.134-6.414z" fill="#008389"/>
    <path d="M79.517 210.571s1.573 2.907.434 5.818c-1.139 2.91-3.279 4.713-3.279 4.713s3.284.966 5.135-4.022c1.852-4.989-2.29-6.509-2.29-6.509z" fill="#ff769d"/>
  </g>
</svg>
